<svg xmlns="http://www.w3.org/2000/svg" viewBox="0 0 752 544" xml:space="preserve">
    <rect width="752" height="544" fill="white"/>
    <path d="M364.44 105.339c9.083-6.41 18.937-8.494 29.573-8.47 51.151.113 102.303.04 153.455.041 25.415 0 44.605 19.073 44.66 44.62.087 40.487.08 80.976.007 121.464-.043 23.615-12.85 39.848-35.674 45.3-3.564.852-4.64 2.34-3.652 5.937 3.173 11.546 6.132 23.15 9.158 34.737 1.005 3.85 2.77 8.04-1.55 10.889-4.367 2.879-7.52-.692-10.674-2.932-20.904-14.852-41.784-29.74-62.593-44.725-2.858-2.059-5.74-2.976-9.247-2.94-12.828.133-25.66.174-38.487-.015-3.924-.057-5.23 1.244-5.17 5.173.196 12.993.086 25.99.091 38.987.01 24.5-17.987 42.533-42.368 43.07-25.156.553-50.309.35-75.463.351-4.397 0-7.984 1.155-11.534 3.72-20.787 15.016-41.695 29.865-62.544 44.796-2.926 2.096-5.876 4.275-9.508 1.819-3.653-2.471-2.687-6.062-1.79-9.514 2.932-11.27 5.889-22.533 8.8-33.808.571-2.214.983-4.47 1.545-7.06-10.34-1.384-19.646-4.071-27.148-11.143-9.172-8.647-14.494-19.078-14.523-31.772-.093-42.154-.118-84.308.011-126.462.064-20.78 13.84-37.74 33.829-42.065 2.572-.557 5.284-.644 7.931-.648 32.824-.042 65.648-.023 98.471-.036 6.582-.002 6.608-.034 6.62-6.687.023-11.997.085-23.994-.007-35.99-.116-15.028 5.87-27.063 17.78-36.637m192.14 4.295c-6.618-1.127-13.294-.667-19.948-.67-48.809-.022-97.62.204-146.426-.121-16.89-.113-31.004 13.314-31.744 30.159-.6 13.634-.018 27.316-.208 40.973-.054 3.903 1.57 4.775 5.07 4.726 10.66-.148 21.322-.08 31.983-.012 2.147.013 4.339.187 6.43.647 18.462 4.059 32.472 21.413 32.557 40.483.098 21.822.174 43.647-.08 65.466-.059 4.966 1.172 6.57 6.356 6.535 34.98-.233 69.964-.116 104.946-.15 20.15-.021 33.803-12.161 34.482-32.249 1.402-41.455.672-82.943.407-124.414-.099-15.474-8.686-26.083-23.825-31.373M422.74 341.497c.006-8.83-.176-17.666.1-26.487.132-4.27-1.06-5.975-5.593-5.8-8.318.324-16.657.111-24.987.108-26.956-.008-45.545-18.553-45.581-45.51-.028-20.826-.084-41.653.058-62.478.027-3.92-1.294-5.2-5.2-5.186-33.487.123-66.975-.028-100.462.162-10.817.061-19.039 5.2-24.597 14.564-3.598 6.062-5.03 12.702-5.043 19.603-.071 40.652-.183 81.305.054 121.955.096 16.365 12.42 32.643 32.292 32.374 17.656-.239 35.32.009 52.98.011 31.655.004 63.31.06 94.965-.057 15.2-.056 26.531-9.538 30.035-24.367 1.407-5.952.704-11.93.978-18.892m-64.414-129.991c.003 17.991-.062 35.983.03 53.973.077 15.2 10.356 28.24 25.244 31.206 11.993 2.389 24.239.672 36.368.92 2.936.06 2.73-2.36 2.73-4.363.005-22.322.297-44.65-.108-66.965-.315-17.357-13.577-29.85-30.9-30.042-6.33-.07-12.66-.024-18.99-.023-14.383.001-14.383.003-14.374 15.294zM539.018 437.97c-3.78-3.72-7.907-4.97-12.922-4.835-11.257.303-12.492-1.147-12.496-12.586-.001-4.5-.07-9.002.078-13.497.175-5.32 2.526-8.49 7.502-7.901 9.407 1.112 16.323-2.758 22.722-8.82 2.532-2.398 5.386-4.464 8.149-6.608 2.135-1.658 4.5-2.121 7.022-.875 2.574 1.271 3.298 3.476 3.292 6.199-.035 17.997-.032 35.994.016 53.991.007 2.712-.689 4.912-3.198 6.276-2.755 1.498-5.176.63-7.402-1.12-4.19-3.296-8.333-6.653-12.763-10.223m16.965-33.462c-.279-4.694.63-9.472-.763-14.767-6 4.628-11.52 8.88-17.033 13.143-1.73 1.338-3.49 2.375-5.824 2.54-13.038.926-13.035.97-12.955 14.132.003.5.052 1.005-.002 1.499-.486 4.417 1.592 6.244 5.847 5.599 7.185-1.09 12.832 1.59 18.02 6.408 3.576 3.321 7.533 6.342 12.71 9.106v-37.66zM148.223 320.8c3.61 7.779 7.767 14.773 13.005 21.108.834 1.01 1.575 2.166 2.061 3.375.593 1.475.395 2.986-.954 4.075-1.515 1.224-3.227 1.196-4.559-.069-2.164-2.055-4.328-4.184-6.096-6.574-25.886-35-24.363-82.92 3.62-116.158.215-.255.406-.531.63-.776 1.835-2.001 3.816-4.441 6.648-1.944 2.694 2.375.9 4.85-.79 7.021-3.893 4.995-7.574 10.087-10.504 15.76-12.476 24.151-12.938 48.753-3.061 74.182z"/>
    <path d="M168.609 333.51c-23.198-29.48-21.645-65.618-.632-93.13.704-.922 1.427-1.894 2.34-2.578 1.748-1.308 3.695-1.659 5.448-.007 1.633 1.539 1.28 3.329.164 4.987-2.138 3.175-4.536 6.187-6.501 9.463-14.776 24.63-13.055 52.543 4.546 75.206.204.263.423.516.614.789 1.429 2.032 3.498 4.135 1.143 6.611-2.579 2.71-4.803.79-7.122-1.341z"/>
    <path d="M179.725 299.201c1.764 5.876 4.655 10.723 7.804 15.446 1.542 2.313 2.994 4.906-.13 6.923-2.816 1.818-4.616-.433-6.225-2.396-14.164-17.287-14.062-47.742.196-65.116 1.642-2 3.475-4.172 6.236-2.335 3.08 2.049 1.596 4.632-.018 6.903-8.679 12.208-11.71 25.526-7.863 40.575zM600.063 408.026c-1.447-7.062-4.16-13.016-8.8-18.061-1.674-1.82-3.846-4.015-1.094-6.352 2.641-2.243 4.599.112 6.3 1.903 15.003 15.786 14.808 45.81-.378 61.162-1.646 1.663-3.47 3.725-5.922 1.64-2.442-2.076-.895-4.135.711-6.008 8.429-9.825 11.365-21.165 9.183-34.284z"/>
    <path d="M586.688 418.565c.683-7.41-1.323-13.518-5.753-18.94-1.541-1.886-3.608-4.269-.654-6.399 2.53-1.823 4.282.469 5.818 2.205 10.102 11.421 9.874 30.525-.488 41.024-1.605 1.627-3.31 3.919-5.82 1.654-2.221-2.003-.45-3.884.82-5.648 2.93-4.074 5.505-8.314 6.077-13.896z"/>
    <path d="M571.667 411.554c-.323-.63-.499-.91-.664-1.198-1.224-2.124-4.518-4.435-1.243-6.683 3.231-2.217 5.493.811 7.153 3.311 3.708 5.584 3.231 14.404-.937 19.088-1.708 1.92-3.84 3.864-6.394 1.914-2.636-2.014-.757-4.047.824-5.87 2.673-3.082 2.946-6.534 1.261-10.562zM498.86 192.044c-5.812 0-11.144-.114-16.469.033-4.185.116-5.883-1.427-5.838-5.855.044-4.299 1.802-5.493 5.716-5.384 6.157.171 12.327-.114 18.482.085 3.81.123 5.7-1.198 5.314-5.149-.032-.33.008-.666.015-.999.198-8.957.155-8.928-8.81-7.962-3.634.392-7.314.348-10.97.558-2.488.143-3.96-.712-4.713-3.321-1.511-5.228-1.066-5.846 4.338-6.422 15.362-1.637 30.894-2.233 45.77-7.024 1.741-.56 3.256-.665 4.477.936 1.693 2.22 3.88 4.117 4.797 7.352-5.332 3.023-11.33 3.804-17.124 4.579-5.573.745-7.448 3.25-6.649 8.507.223 1.465.131 2.999.023 4.49-.233 3.199 1.139 4.518 4.373 4.435 5.326-.136 10.658-.016 15.987-.012 8.887.008 8.78.007 8.887 6.527.13 7.848-5.783 4.084-9.047 4.478-4.922.593-9.979.28-14.967.071-3.789-.159-5.696 1.107-5.255 5.132.162 1.482.13 3.002.023 4.492-.23 3.191 1.168 4.57 4.37 4.499 4.327-.098 8.659.022 12.989.005 3.137-.012 4.876.984 4.827 4.638-.167 12.322-.06 24.647-.072 36.97-.002 2.023.123 4.452-2.745 4.348-2.693-.097-6.332 1.919-7.76-2.063-.802-2.233-2.04-2.742-4.05-2.735-8.494.027-16.987.014-25.48.03-1.537.003-3.186.095-3.673 1.895-1.361 5.02-5.341 3.033-8.252 2.838-3.37-.226-2.54-3.39-2.558-5.558-.095-11.657.08-23.318-.179-34.97-.09-4.052 1.659-5.355 5.249-5.361 3.83-.007 7.662-.156 11.489-.05 3.434.093 4.912-1.449 4.69-4.81-.054-.828.01-1.664.009-2.497-.01-6.498-.091-6.578-7.215-6.726m14.64 44.605c3.484-.002 6.975-.148 10.449.034 3.364.175 4.927-1.02 4.752-4.548-.18-3.64-.198-7.305-.001-10.944.192-3.561-1.596-4.783-4.777-4.728-8.289.143-16.577.319-24.867.456-2.444.04-3.648 1.174-3.63 3.665.028 3.98.095 7.967-.068 11.942-.128 3.106 1.414 4.124 4.211 4.107 4.313-.027 8.626.008 13.93.016z"/>
    <path d="M467.38 215.935c-.003 3.598-.003 6.71-.003 10.441 4.586-1.76 6.258-5.822 9.495-7.808 6.065 4.865 6.403 7.88 1.464 12.84-5.162 5.186-10.344 10.352-15.606 15.436-1.308 1.263-2.988 3.928-4.82 1.733-2.023-2.424-6.15-5.002-3.73-8.786 2.456-3.839 2.707-7.71 2.69-11.874-.04-9.479-.188-18.96-.016-28.435.07-3.788-.986-5.737-5.062-5.206-1.144.15-2.35-.133-3.485.047-4.622.729-6.116-1.37-6.098-5.799.018-4.623 2.642-4.987 6.185-4.859 4.153.15 8.335.308 12.466-.022 4.884-.391 6.858 1.127 6.606 6.366-.407 8.461-.094 16.957-.087 25.926zM473.662 168.708c-5.738 7.612-5.696 7.572-11.792 1.148-3.19-3.36-6.539-6.571-9.85-9.815-1.368-1.34-2.892-2.745-.858-4.501 2.062-1.78 3.825-6.03 7.115-3.484 5.94 4.598 12.347 8.988 15.385 16.652zM271.138 309.222c8.648-21.165 17.193-41.957 25.601-62.804 1.378-3.417 3.395-4.862 7.145-4.76 11.625.319 9.162-1.102 13.452 9.212 10.807 25.986 21.687 51.942 32.502 77.926.74 1.78 2.055 3.463 1.52 5.966-4.243.998-8.53.63-12.785.33-2.203-.155-2.746-2.181-3.445-3.862-2.045-4.921-4.179-9.81-6.048-14.797-1.074-2.866-2.67-4.245-5.888-4.205-11.497.144-22.998.152-34.496.03-2.987-.032-4.505 1.07-5.477 3.865-1.694 4.87-4.015 9.533-5.556 14.445-1.25 3.984-3.638 4.858-7.464 4.808-10.954-.144-10.08.002-6.243-9.252 2.295-5.537 4.686-11.033 7.182-16.902m22.263-18.404c-.68 2.783-3.005 5.16-2.347 8.151h30.861l-15.152-38.78-1.243.301c-3.947 9.872-7.893 19.743-12.12 30.328z"/>
</svg>
